<?xml version="1.0" standalone="no"?><!-- Generator: Gravit.io --><svg xmlns="http://www.w3.org/2000/svg" xmlns:xlink="http://www.w3.org/1999/xlink" style="isolation:isolate" viewBox="0 0 500 500" width="500" height="500"><defs><clipPath id="_clipPath_5hzWRY5RMzgjI0P1DIK7wI0hDMGEMxvB"><rect width="500" height="500"/></clipPath></defs><g clip-path="url(#_clipPath_5hzWRY5RMzgjI0P1DIK7wI0hDMGEMxvB)"><clipPath id="_clipPath_xhJqI3Ijo0EYmiwhOeDRvhV3nGki92VF"><rect x="0" y="0" width="500" height="500" transform="matrix(1,0,0,1,0,0)" fill="rgb(255,255,255)"/></clipPath><g clip-path="url(#_clipPath_xhJqI3Ijo0EYmiwhOeDRvhV3nGki92VF)"><g id="Group"><path d=" M 426.031 426.063 L 351.961 426.063 L 351.961 310.039 C 351.961 282.364 351.419 246.776 313.418 246.776 C 274.823 246.776 268.939 276.914 268.939 308.043 L 268.939 426.063 L 194.803 426.063 L 194.803 187.468 L 265.944 187.468 L 265.944 220.066 L 266.957 220.066 C 276.859 201.313 301.055 181.526 337.132 181.526 C 412.172 181.526 426.031 230.931 426.031 295.196 L 426.031 426.063 L 426.031 426.063 L 426.031 426.063 Z  M 111.203 154.853 C 87.434 154.853 68.219 135.583 68.219 111.84 C 68.219 88.128 87.434 68.855 111.203 68.855 C 134.915 68.855 154.18 88.128 154.18 111.84 C 154.18 135.583 134.915 154.853 111.203 154.853 L 111.203 154.853 L 111.203 154.853 Z  M 148.293 426.063 L 74.107 426.063 L 74.107 187.468 L 148.293 187.468 L 148.293 426.063 L 148.293 426.063 Z  M 462.965 0.025 L 36.909 0.025 C 16.536 0.025 0 16.173 0 36.047 L 0 463.923 C 0 483.833 16.536 500 36.909 500 L 462.965 500 C 483.356 500 500 483.833 500 463.923 L 500 36.047 C 500 16.173 483.356 0.025 462.965 0.025 Z " fill="rgb(218,165,32)"/></g></g></g></svg>