<?xml version="1.0" standalone="no"?><!-- Generator: Gravit.io --><svg xmlns="http://www.w3.org/2000/svg" xmlns:xlink="http://www.w3.org/1999/xlink" style="isolation:isolate" viewBox="0 0 500 500" width="500" height="500"><defs><clipPath id="_clipPath_QLON3OvTleJP6r5g1e5TWl21H5h3rPhR"><rect width="500" height="500"/></clipPath></defs><g clip-path="url(#_clipPath_QLON3OvTleJP6r5g1e5TWl21H5h3rPhR)"><path d=" M 0 250 C 0 112.021 112.021 0 250 0 C 387.979 0 500 112.021 500 250 C 500 387.979 387.979 500 250 500 C 112.021 500 0 387.979 0 250 Z " fill="rgb(0,0,0)"/><path d=" M 234.15 267.5 L 258.351 267.5 L 258.351 267.5 Q 283.101 267.5 295.725 254.125 Q 308.351 240.75 308.351 215 Q 308.351 189.25 295.725 175.875 Q 283.831 163.274 261.174 162.545 Q 260.809 162.5 260.4 162.5 L 258.351 162.5 L 205.399 162.5 L 174.601 162.5 Q 170.85 162.5 170.85 166.25 Q 170.85 170 174.601 170 L 192.101 170 Q 195.85 170 195.85 173.75 L 195.85 326.25 Q 195.85 330 192.101 330 L 174.601 330 Q 170.85 330 170.85 333.75 Q 170.85 337.5 174.601 337.5 L 205.399 337.5 L 227.101 337.5 L 325.399 337.5 Q 329.15 337.5 329.15 333.75 L 329.15 298.75 Q 329.15 295 325.399 295 Q 321.649 295 321.649 298.75 L 321.649 326.25 Q 321.649 330 317.899 330 L 237.899 330 Q 234.15 330 234.15 326.25 L 234.15 267.5 Z  M 226.649 267.5 L 207.101 267.5 Q 203.351 267.5 203.351 271.25 L 203.351 326.25 Q 203.351 330 207.101 330 L 222.899 330 Q 226.649 330 226.649 326.25 L 226.649 267.5 Z  M 226.649 260 L 207.101 260 L 207.101 260 Q 203.351 260 203.351 256.25 L 203.351 173.75 Q 203.351 170 207.101 170 L 222.899 170 Q 226.649 170 226.649 173.75 L 226.649 260 Z  M 234.15 260 L 258.351 260 Q 300.85 260 300.85 215 Q 300.85 170 258.351 170 L 237.899 170 Q 234.15 170 234.15 173.75 L 234.15 260 Z " fill-rule="evenodd" fill="rgb(255,255,255)"/></g></svg>