<?xml version="1.0" standalone="no"?><!-- Generator: Gravit.io --><svg xmlns="http://www.w3.org/2000/svg" xmlns:xlink="http://www.w3.org/1999/xlink" style="isolation:isolate" viewBox="0 0 500 500" width="500" height="500"><defs><clipPath id="_clipPath_7JMQfGYZthsXCyT2vOFatn4X6CTe8lHX"><rect width="500" height="500"/></clipPath></defs><g clip-path="url(#_clipPath_7JMQfGYZthsXCyT2vOFatn4X6CTe8lHX)"><path d=" M 0 250 C 0 112.021 112.021 0 250 0 C 387.979 0 500 112.021 500 250 C 500 387.979 387.979 500 250 500 C 112.021 500 0 387.979 0 250 Z  M 12.5 250 C 12.5 118.92 118.92 12.5 250 12.5 C 381.08 12.5 487.5 118.92 487.5 250 C 487.5 381.08 381.08 487.5 250 487.5 C 118.92 487.5 12.5 381.08 12.5 250 Z " fill-rule="evenodd" fill="rgb(255,255,255)"/><path d=" M 25 250 C 25 125.819 125.819 25 250 25 C 374.181 25 475 125.819 475 250 C 475 374.181 374.181 475 250 475 C 125.819 475 25 374.181 25 250 Z  M 47.5 250 C 47.5 138.237 138.237 47.5 250 47.5 C 361.763 47.5 452.5 138.237 452.5 250 C 452.5 361.763 361.763 452.5 250 452.5 C 138.237 452.5 47.5 361.763 47.5 250 Z " fill-rule="evenodd" fill="rgb(255,255,255)"/></g></svg>