<?xml version="1.0" standalone="no"?><!-- Generator: Gravit.io --><svg xmlns="http://www.w3.org/2000/svg" xmlns:xlink="http://www.w3.org/1999/xlink" style="isolation:isolate" viewBox="0 0 500 250" width="500" height="250"><defs><clipPath id="_clipPath_wlJjIEcBkQnCKNReoBYndgTZMROAsWfX"><rect width="500" height="250"/></clipPath></defs><g clip-path="url(#_clipPath_wlJjIEcBkQnCKNReoBYndgTZMROAsWfX)"><path d=" M 25 0 C 25 -124.181 125.819 -225 250 -225 C 374.181 -225 475 -124.181 475 0 C 475 124.181 374.181 225 250 225 C 125.819 225 25 124.181 25 0 Z  M 47.5 0 C 47.5 -111.763 138.237 -202.5 250 -202.5 C 361.763 -202.5 452.5 -111.763 452.5 0 C 452.5 111.763 361.763 202.5 250 202.5 C 138.237 202.5 47.5 111.763 47.5 0 Z  M 0 0 C 0 -137.979 112.021 -250 250 -250 C 387.979 -250 500 -137.979 500 0 C 500 137.979 387.979 250 250 250 C 112.021 250 0 137.979 0 0 Z  M 12.5 0 C 12.5 -131.08 118.92 -237.5 250 -237.5 C 381.08 -237.5 487.5 -131.08 487.5 0 C 487.5 131.08 381.08 237.5 250 237.5 C 118.92 237.5 12.5 131.08 12.5 0 Z " fill-rule="evenodd" fill="rgb(0,0,0)"/></g></svg>