<?xml version="1.0" standalone="no"?><!-- Generator: Gravit.io --><svg xmlns="http://www.w3.org/2000/svg" xmlns:xlink="http://www.w3.org/1999/xlink" style="isolation:isolate" viewBox="0 0 500 500" width="500" height="500"><defs><clipPath id="_clipPath_AvTT0Rq7UUlU8X1FYjbBnNXlog6DTIof"><rect width="500" height="500"/></clipPath></defs><g clip-path="url(#_clipPath_AvTT0Rq7UUlU8X1FYjbBnNXlog6DTIof)"><path d=" M 378.01 272.234 L 344.775 250.002 L 378.01 227.77 L 378.01 272.234 Z  M 263.285 366.471 L 263.285 304.508 L 320.88 265.989 L 367.373 297.083 L 263.285 366.471 Z  M 250.002 281.43 L 203.014 250.002 L 250.002 218.573 L 296.987 250.002 L 250.002 281.43 Z  M 236.715 366.471 L 132.626 297.083 L 179.123 265.989 L 236.715 304.508 L 236.715 366.471 Z  M 121.991 227.77 L 155.228 250.002 L 121.991 272.234 L 121.991 227.77 Z  M 236.715 133.532 L 236.715 195.495 L 179.123 234.023 L 132.626 202.919 L 236.715 133.532 Z  M 263.285 133.532 L 367.373 202.919 L 320.88 234.023 L 263.285 195.495 L 263.285 133.532 Z  M 404.462 201.171 C 404.434 200.976 404.385 200.79 404.353 200.595 C 404.287 200.219 404.219 199.845 404.121 199.48 C 404.063 199.26 403.982 199.049 403.914 198.838 C 403.807 198.512 403.702 198.187 403.572 197.87 C 403.481 197.651 403.377 197.431 403.275 197.22 C 403.136 196.918 402.991 196.625 402.824 196.342 C 402.702 196.13 402.572 195.926 402.446 195.724 C 402.267 195.446 402.084 195.178 401.883 194.918 C 401.738 194.723 401.584 194.528 401.429 194.34 C 401.217 194.097 400.998 193.853 400.766 193.625 C 400.593 193.447 400.42 193.268 400.238 193.105 C 399.994 192.885 399.742 192.673 399.485 192.47 C 399.287 192.316 399.091 192.161 398.884 192.015 C 398.806 191.966 398.738 191.901 398.664 191.852 L 257.369 97.656 C 252.906 94.68 247.095 94.68 242.631 97.656 L 101.336 191.852 C 101.262 191.901 101.193 191.966 101.116 192.015 C 100.909 192.161 100.714 192.316 100.518 192.47 C 100.258 192.673 100.006 192.885 99.767 193.105 C 99.579 193.268 99.409 193.447 99.234 193.625 C 99.003 193.853 98.783 194.097 98.575 194.34 C 98.417 194.528 98.262 194.723 98.116 194.918 C 97.921 195.178 97.733 195.446 97.558 195.724 C 97.424 195.926 97.298 196.13 97.177 196.342 C 97.014 196.625 96.868 196.918 96.725 197.22 C 96.624 197.431 96.518 197.651 96.429 197.87 C 96.299 198.187 96.193 198.512 96.086 198.838 C 96.017 199.049 95.94 199.26 95.88 199.48 C 95.782 199.845 95.717 200.219 95.647 200.595 C 95.615 200.79 95.566 200.976 95.542 201.171 C 95.464 201.74 95.42 202.318 95.42 202.903 L 95.42 297.1 C 95.42 297.685 95.464 298.263 95.542 298.84 C 95.566 299.028 95.615 299.222 95.647 299.409 C 95.717 299.784 95.782 300.157 95.88 300.523 C 95.94 300.743 96.017 300.954 96.086 301.166 C 96.193 301.49 96.299 301.816 96.429 302.141 C 96.518 302.362 96.624 302.573 96.725 302.784 C 96.868 303.084 97.014 303.377 97.177 303.67 C 97.298 303.875 97.424 304.076 97.558 304.28 C 97.733 304.557 97.921 304.825 98.116 305.085 C 98.262 305.289 98.417 305.476 98.575 305.662 C 98.783 305.906 99.003 306.15 99.234 306.378 C 99.409 306.556 99.579 306.735 99.767 306.897 C 100.006 307.119 100.258 307.33 100.518 307.533 C 100.714 307.688 100.909 307.842 101.116 307.988 C 101.193 308.037 101.262 308.102 101.336 308.15 L 242.631 402.347 C 244.863 403.835 247.432 404.584 250.002 404.584 C 252.568 404.584 255.137 403.835 257.369 402.347 L 398.664 308.15 C 398.738 308.102 398.806 308.037 398.884 307.988 C 399.091 307.842 399.287 307.688 399.485 307.533 C 399.742 307.33 399.994 307.119 400.238 306.897 C 400.42 306.735 400.593 306.556 400.766 306.378 C 400.998 306.15 401.217 305.906 401.429 305.662 C 401.584 305.476 401.738 305.289 401.883 305.085 C 402.084 304.825 402.267 304.557 402.446 304.28 C 402.572 304.076 402.702 303.875 402.824 303.67 C 402.991 303.377 403.136 303.084 403.275 302.784 C 403.377 302.573 403.481 302.362 403.572 302.141 C 403.702 301.816 403.807 301.49 403.914 301.166 C 403.982 300.954 404.063 300.743 404.121 300.523 C 404.219 300.157 404.287 299.784 404.353 299.409 C 404.385 299.222 404.434 299.028 404.462 298.84 C 404.535 298.263 404.581 297.685 404.581 297.1 L 404.581 202.903 C 404.581 202.318 404.535 201.74 404.462 201.171 Z  M 250.002 458.944 C 134.79 458.944 41.06 365.211 41.06 250.002 C 41.06 134.793 134.79 41.059 250.002 41.059 C 365.21 41.059 458.94 134.793 458.94 250.002 C 458.94 365.211 365.21 458.944 250.002 458.944 Z  M 250.002 -0.001 C 111.926 -0.001 0 111.927 0 250.002 C 0 388.077 111.926 500.001 250.002 500.001 C 388.074 500.001 500 388.077 500 250.002 C 500 111.927 388.074 -0.001 250.002 -0.001 Z " fill-rule="evenodd" fill="rgb(255,255,255)"/></g></svg>