<?xml version="1.0" standalone="no"?><!-- Generator: Gravit.io --><svg xmlns="http://www.w3.org/2000/svg" xmlns:xlink="http://www.w3.org/1999/xlink" style="isolation:isolate" viewBox="0 0 500 500" width="500" height="500"><defs><clipPath id="_clipPath_AzuAI7SDt6Ww02S8albgSibisd1lcbAp"><rect width="500" height="500"/></clipPath></defs><g clip-path="url(#_clipPath_AzuAI7SDt6Ww02S8albgSibisd1lcbAp)"><clipPath id="_clipPath_dlRq1MgGiwyx7On33Fn7UD4pvxjb4xeJ"><rect x="0" y="0" width="500" height="500" transform="matrix(1,0,0,1,0,0)" fill="rgb(255,255,255)"/></clipPath><g clip-path="url(#_clipPath_dlRq1MgGiwyx7On33Fn7UD4pvxjb4xeJ)"><g id="Group"><clipPath id="_clipPath_LlYDSwLi7glKDlVj259eDmo6LVhUkqKj"><rect x="0" y="0" width="500" height="500" transform="matrix(1,0,0,1,0,0)" fill="rgb(255,255,255)"/></clipPath><g clip-path="url(#_clipPath_LlYDSwLi7glKDlVj259eDmo6LVhUkqKj)"><g id="Group"><g id="Group"><path d=" M 250.002 0 C 111.948 0 0 111.927 0 250.002 C 0 360.459 71.633 454.171 170.967 487.228 C 183.461 489.542 188.048 481.805 188.048 475.202 C 188.048 469.24 187.816 449.547 187.709 428.657 C 118.158 443.78 103.482 399.16 103.482 399.16 C 92.109 370.263 75.724 362.579 75.724 362.579 C 53.041 347.063 77.433 347.381 77.433 347.381 C 102.538 349.141 115.757 373.148 115.757 373.148 C 138.054 411.364 174.241 400.315 188.508 393.927 C 190.751 377.768 197.23 366.736 204.38 360.497 C 148.851 354.175 90.478 332.739 90.478 236.945 C 90.478 209.65 100.244 187.348 116.237 169.841 C 113.641 163.54 105.084 138.116 118.659 103.68 C 118.659 103.68 139.652 96.961 187.427 129.306 C 207.369 123.767 228.756 120.989 250.002 120.894 C 271.248 120.989 292.652 123.767 312.631 129.306 C 360.348 96.961 381.312 103.68 381.312 103.68 C 394.92 138.116 386.359 163.54 383.763 169.841 C 399.793 187.348 409.493 209.65 409.493 236.945 C 409.493 332.966 351.008 354.109 295.338 360.298 C 304.306 368.056 312.296 383.27 312.296 406.595 C 312.296 440.045 312.006 466.967 312.006 475.202 C 312.006 481.855 316.506 489.65 329.178 487.195 C 428.458 454.101 500 360.422 500 250.002 C 500 111.927 388.069 0 250.002 0 Z " fill-rule="evenodd" fill="rgb(218,165,32)"/></g></g></g></g></g></g></svg>