<?xml version="1.0" standalone="no"?><!-- Generator: Gravit.io --><svg xmlns="http://www.w3.org/2000/svg" xmlns:xlink="http://www.w3.org/1999/xlink" style="isolation:isolate" viewBox="0 0 500 500" width="500" height="500"><defs><clipPath id="_clipPath_ATD2i26Md5MgWi4ZprXjcXuz02rKbcrZ"><rect width="500" height="500"/></clipPath></defs><g clip-path="url(#_clipPath_ATD2i26Md5MgWi4ZprXjcXuz02rKbcrZ)"><clipPath id="_clipPath_2blKCrWGa2jmfeCjNwSB85G1tAig18dC"><rect x="0" y="0" width="500" height="500" transform="matrix(1,0,0,1,0,0)" fill="rgb(255,255,255)"/></clipPath><g clip-path="url(#_clipPath_2blKCrWGa2jmfeCjNwSB85G1tAig18dC)"><g id="Group"><clipPath id="_clipPath_Fz0sL4Fe4fRYixHJlBrVD2IqL69AAsOP"><rect x="0" y="0" width="500" height="500" transform="matrix(1,0,0,1,0,0)" fill="rgb(255,255,255)"/></clipPath><g clip-path="url(#_clipPath_Fz0sL4Fe4fRYixHJlBrVD2IqL69AAsOP)"><g id="Group"><g id="Group"><path d=" M 122.574 500 L 122.574 500 Q 111.86 500 111.86 489.286 L 111.86 489.286 L 111.86 489.286 Q 111.86 478.571 122.574 478.571 L 122.574 478.571 L 172.574 478.571 L 172.574 478.571 Q 183.289 478.571 183.289 467.857 L 183.289 467.857 L 183.289 32.143 L 183.289 32.143 Q 183.289 21.429 172.574 21.429 L 172.574 21.429 L 122.574 21.429 L 122.574 21.429 Q 111.86 21.429 111.86 10.714 L 111.86 10.714 L 111.86 10.714 Q 111.86 0 122.574 0 L 122.574 0 L 279.717 0 L 279.717 0 Q 290.432 0 290.432 10.714 L 290.432 10.714 L 290.432 10.714 Q 290.432 21.429 279.717 21.429 L 279.717 21.429 L 215.432 21.429 L 215.432 21.429 Q 204.717 21.429 204.717 32.143 L 204.717 32.143 L 204.717 467.857 L 204.717 467.857 Q 204.717 478.571 215.432 478.571 L 215.432 478.571 L 444.003 478.571 L 444.003 478.571 Q 454.717 478.571 454.717 467.857 L 454.717 467.857 L 454.717 389.286 L 454.717 389.286 Q 454.717 378.571 465.432 378.571 L 465.432 378.571 L 465.432 378.571 Q 476.146 378.571 476.146 389.286 L 476.146 389.286 L 476.146 489.286 L 476.146 489.286 Q 476.146 500 465.432 500 L 465.432 500 L 122.574 500 L 122.574 500 Z " fill="rgb(218,165,32)"/></g></g></g></g></g></g></svg>