<?xml version="1.0" standalone="no"?><!-- Generator: Gravit.io --><svg xmlns="http://www.w3.org/2000/svg" xmlns:xlink="http://www.w3.org/1999/xlink" style="isolation:isolate" viewBox="0 0 500 500" width="500" height="500"><defs><clipPath id="_clipPath_K1XI1SIQ84Yi93CGUy2zYklpFNaEJB1R"><rect width="500" height="500"/></clipPath></defs><g clip-path="url(#_clipPath_K1XI1SIQ84Yi93CGUy2zYklpFNaEJB1R)"><clipPath id="_clipPath_fOXqpMWogB4QeSnQF56zRzVT0Kzcknju"><rect x="0" y="0" width="500" height="500" transform="matrix(1,0,0,1,0,0)" fill="rgb(255,255,255)"/></clipPath><g clip-path="url(#_clipPath_fOXqpMWogB4QeSnQF56zRzVT0Kzcknju)"><g id="Group"><path d=" M 273.86 300 L 127.432 300 L 127.432 300 Q 116.718 300 116.718 310.714 L 116.718 310.714 L 116.718 467.857 L 116.718 467.857 Q 116.718 478.571 127.432 478.571 L 127.432 478.571 L 184.575 478.571 L 184.575 478.571 Q 195.289 478.571 195.289 489.286 L 195.289 489.286 L 195.289 489.286 Q 195.289 500 184.575 500 L 184.575 500 L 34.575 500 L 34.575 500 Q 23.86 500 23.86 489.286 L 23.86 489.286 L 23.86 489.286 Q 23.86 478.571 34.575 478.571 L 34.575 478.571 L 84.575 478.571 L 84.575 478.571 Q 95.289 478.571 95.289 467.857 L 95.289 467.857 L 95.289 32.143 L 95.289 32.143 Q 95.289 21.429 84.575 21.429 L 84.575 21.429 L 34.575 21.429 L 34.575 21.429 Q 23.86 21.429 23.86 10.714 L 23.86 10.714 L 23.86 10.714 Q 23.86 0 34.575 0 L 34.575 0 L 273.86 0 L 273.86 0 Q 344.575 0 380.646 38.214 L 380.646 38.214 L 380.646 38.214 Q 416.718 76.429 416.718 150 L 416.718 150 L 416.718 150 Q 416.718 223.571 380.646 261.786 L 380.646 261.786 L 380.646 261.786 Q 344.575 300 273.86 300 L 273.86 300 L 273.86 300 Z  M 127.432 278.571 L 273.86 278.571 L 273.86 278.571 Q 395.289 278.571 395.289 150 L 395.289 150 L 395.289 150 Q 395.289 21.429 273.86 21.429 L 273.86 21.429 L 127.432 21.429 L 127.432 21.429 Q 116.718 21.429 116.718 32.143 L 116.718 32.143 L 116.718 267.857 L 116.718 267.857 Q 116.718 278.571 127.432 278.571 L 127.432 278.571 L 127.432 278.571 Z " fill-rule="evenodd" fill="rgb(218,165,32)"/></g></g></g></svg>