<?xml version="1.0" standalone="no"?><!-- Generator: Gravit.io --><svg xmlns="http://www.w3.org/2000/svg" xmlns:xlink="http://www.w3.org/1999/xlink" style="isolation:isolate" viewBox="0 0 500 250" width="500" height="250"><defs><clipPath id="_clipPath_rQzNyn0gMI3kPEVSXVhWyRJwZsQBOfLg"><rect width="500" height="250"/></clipPath></defs><g clip-path="url(#_clipPath_rQzNyn0gMI3kPEVSXVhWyRJwZsQBOfLg)"><clipPath id="_clipPath_qzqtJCalTrCvhHZFLidBIazXUxG4H1nF"><rect x="0" y="0" width="500" height="250" transform="matrix(1,0,0,1,0,0)" fill="rgb(255,255,255)"/></clipPath><g clip-path="url(#_clipPath_qzqtJCalTrCvhHZFLidBIazXUxG4H1nF)"><g id="Group"><path d=" M 0 0 C 0 137.979 112.021 250 250 250 C 387.979 250 500 137.979 500 0 L 0 0 L 0 0 Z " fill="rgb(218,165,32)"/><path d=" M 231.885 145 L 259.544 145 L 259.544 145 Q 287.83 145 302.258 129.714 Q 316.686 114.428 316.686 85 Q 316.686 55.572 302.258 40.286 Q 288.664 25.884 262.771 25.051 Q 262.353 25 261.885 25 L 259.544 25 L 199.028 25 L 163.83 25 Q 159.543 25 159.543 29.286 Q 159.543 33.572 163.83 33.572 L 183.83 33.572 Q 188.115 33.572 188.115 37.857 L 188.115 212.143 Q 188.115 216.428 183.83 216.428 L 163.83 216.428 Q 159.543 216.428 159.543 220.714 Q 159.543 225 163.83 225 L 199.028 225 L 223.829 225 L 336.171 225 Q 340.457 225 340.457 220.714 L 340.457 180.714 Q 340.457 176.428 336.171 176.428 Q 331.885 176.428 331.885 180.714 L 331.885 212.143 Q 331.885 216.428 327.599 216.428 L 236.171 216.428 Q 231.885 216.428 231.885 212.143 L 231.885 145 L 231.885 145 Z  M 223.314 145 L 200.972 145 Q 196.686 145 196.686 149.286 L 196.686 212.143 Q 196.686 216.428 200.972 216.428 L 219.028 216.428 Q 223.314 216.428 223.314 212.143 L 223.314 145 L 223.314 145 Z  M 223.314 136.428 L 200.972 136.428 L 200.972 136.428 Q 196.686 136.428 196.686 132.143 L 196.686 37.857 Q 196.686 33.572 200.972 33.572 L 219.028 33.572 Q 223.314 33.572 223.314 37.857 L 223.314 136.428 L 223.314 136.428 Z  M 231.885 136.428 L 259.544 136.428 Q 308.115 136.428 308.115 85 Q 308.115 33.572 259.544 33.572 L 236.171 33.572 Q 231.885 33.572 231.885 37.857 L 231.885 136.428 L 231.885 136.428 Z " fill-rule="evenodd" fill="rgb(0,5,0)"/></g></g></g></svg>