<?xml version="1.0" standalone="no"?><!-- Generator: Gravit.io --><svg xmlns="http://www.w3.org/2000/svg" xmlns:xlink="http://www.w3.org/1999/xlink" style="isolation:isolate" viewBox="0 0 500 500" width="500" height="500"><defs><clipPath id="_clipPath_CxoVT38tedRaS3crE52ifNsqUGiJ5pQf"><rect width="500" height="500"/></clipPath></defs><g clip-path="url(#_clipPath_CxoVT38tedRaS3crE52ifNsqUGiJ5pQf)"><clipPath id="_clipPath_FD8T0AI2wen7y908u6V1WBqC7OaHLuh6"><rect x="0" y="0" width="500" height="500" transform="matrix(1,0,0,1,0,0)" fill="rgb(255,255,255)"/></clipPath><g clip-path="url(#_clipPath_FD8T0AI2wen7y908u6V1WBqC7OaHLuh6)"><g id="Group"><path d=" M 204.713 300 L 273.859 300 L 273.859 300 Q 344.574 300 380.644 261.786 Q 416.716 223.571 416.716 150 Q 416.716 76.429 380.644 38.214 Q 346.661 2.211 281.927 0.128 Q 280.883 0 279.713 0 L 273.859 0 L 122.569 0 L 34.574 0 Q 23.858 0 23.858 10.714 Q 23.858 21.429 34.574 21.429 L 84.574 21.429 Q 95.287 21.429 95.287 32.143 L 95.287 467.857 Q 95.287 478.571 84.574 478.571 L 34.574 478.571 Q 23.858 478.571 23.858 489.286 Q 23.858 500 34.574 500 L 122.569 500 L 184.573 500 L 465.427 500 Q 476.142 500 476.142 489.286 L 476.142 389.286 Q 476.142 378.571 465.427 378.571 Q 454.712 378.571 454.712 389.286 L 454.712 467.857 Q 454.712 478.571 443.998 478.571 L 215.427 478.571 Q 204.713 478.571 204.713 467.857 L 204.713 300 L 204.713 300 Z  M 183.284 300 L 127.431 300 Q 116.716 300 116.716 310.714 L 116.716 467.857 Q 116.716 478.571 127.431 478.571 L 172.569 478.571 Q 183.284 478.571 183.284 467.857 L 183.284 300 L 183.284 300 Z  M 183.284 278.571 L 127.431 278.571 L 127.431 278.571 Q 116.716 278.571 116.716 267.857 L 116.716 32.143 Q 116.716 21.429 127.431 21.429 L 172.569 21.429 Q 183.284 21.429 183.284 32.143 L 183.284 278.571 L 183.284 278.571 Z  M 204.713 278.571 L 273.859 278.571 Q 395.287 278.571 395.287 150 Q 395.287 21.429 273.859 21.429 L 215.427 21.429 Q 204.713 21.429 204.713 32.143 L 204.713 278.571 L 204.713 278.571 Z " fill-rule="evenodd" fill="rgb(218,165,32)"/></g></g></g></svg>